<?xml version="1.0" encoding="UTF-8" standalone="no" ?>
<!DOCTYPE svg PUBLIC "-//W3C//DTD SVG 1.1//EN" "http://www.w3.org/Graphics/SVG/1.1/DTD/svg11.dtd">
<svg xmlns="http://www.w3.org/2000/svg" xmlns:xlink="http://www.w3.org/1999/xlink" version="1.1" width="1080" height="1080" viewBox="0 0 1080 1080" xml:space="preserve">
<desc>Created with Fabric.js 5.2.4</desc>
<defs>
</defs>
<rect x="0" y="0" width="100%" height="100%" fill="transparent"></rect>
<g transform="matrix(1 0 0 1 540 540)" id="9ae5c91a-3c61-4031-b53b-9d5011108edd"  >
<rect style="stroke: none; stroke-width: 1; stroke-dasharray: none; stroke-linecap: butt; stroke-dashoffset: 0; stroke-linejoin: miter; stroke-miterlimit: 4; fill: rgb(255,255,255); fill-rule: nonzero; opacity: 1; visibility: hidden;" vector-effect="non-scaling-stroke"  x="-540" y="-540" rx="0" ry="0" width="1080" height="1080" />
</g>
<g transform="matrix(1 0 0 1 540 540)" id="080b8c52-c235-4d27-bead-f0bc7b9c9755"  >
</g>
<g transform="matrix(1 0 0 1 540 540)"  >
<g style="" vector-effect="non-scaling-stroke"   >
		<g transform="matrix(0.13 0 0 -0.13 -33.05 0.08)"  >
<path style="stroke: none; stroke-width: 1; stroke-dasharray: none; stroke-linecap: butt; stroke-dashoffset: 0; stroke-linejoin: miter; stroke-miterlimit: 4; fill: rgb(255,62,62); fill-rule: nonzero; opacity: 1;" vector-effect="non-scaling-stroke"  transform=" translate(-4804.87, -5091.18)" d="M 3362 8430 C 3277 8406 3214 8373 3178 8331 C 3146 8295 3141 8293 3050 8280 C 2915 8262 2830 8239 2712 8186 C 2529 8105 2387 8006 2229 7850 C 1990 7612 1844 7302 1796 6930 C 1794 6915 1783 6845 1774 6785 C 1772 6769 1767 6693 1763 6618 L 1757 6480 L 1417 6480 C 1093 6480 1076 6479 1044 6460 C 1022 6446 1005 6423 993 6392 C 976 6348 975 6296 976 5557 C 978 4701 978 4701 1032 4655 L 1062 4630 L 1610 4630 L 2159 4630 L 2216 4528 C 2501 4020 2985 3498 3416 3234 C 3726 3044 4075 2915 4370 2880 C 4422 2874 4468 2866 4471 2862 C 4474 2858 4485 2826 4495 2790 C 4531 2658 4626 2481 4753 2312 C 4963 2031 5359 1806 5755 1743 C 5831 1731 6123 1734 6227 1748 C 6412 1773 6670 1865 6825 1962 C 7029 2090 7249 2287 7369 2448 L 7422 2519 L 7482 2489 C 7613 2423 7804 2397 7960 2425 C 8145 2457 8294 2535 8421 2667 C 8507 2755 8565 2849 8606 2965 C 8633 3041 8634 3054 8634 3210 C 8634 3369 8633 3378 8604 3462 C 8510 3727 8300 3922 8030 3991 C 7876 4031 7654 4013 7491 3946 C 7207 3830 7007 3528 7007 3215 C 7007 3051 7053 2898 7145 2761 L 7199 2680 L 7158 2628 C 7096 2548 6906 2367 6805 2291 C 6681 2197 6620 2160 6512 2111 C 6112 1932 5639 1971 5258 2215 C 5113 2308 4916 2537 4844 2696 C 4810 2774 4779 2862 4785 2868 C 4787 2870 4817 2874 4852 2877 C 5128 2895 5543 3042 5856 3233 C 6322 3516 6753 3980 7065 4532 L 7140 4665 L 7027 4671 C 6966 4674 6904 4680 6890 4684 C 6867 4690 6859 4681 6787 4566 C 6717 4453 6561 4238 6492 4158 C 6319 3957 6206 3845 6035 3704 C 5740 3460 5371 3281 5010 3205 C 4837 3168 4571 3160 4384 3185 C 3679 3279 3033 3750 2515 4548 L 2461 4630 L 2668 4631 C 2782 4631 3046 4635 3255 4640 C 3655 4649 3674 4651 3820 4704 C 3891 4730 4025 4805 4088 4854 C 4258 4984 4391 5191 4437 5395 C 4455 5477 4463 5754 4449 5830 C 4404 6070 4290 6236 4086 6358 C 3994 6413 3856 6464 3771 6475 C 3757 6476 3355 6478 2878 6479 L 2010 6480 L 2010 6598 C 2010 6700 2018 6797 2035 6916 C 2052 7036 2120 7251 2175 7361 C 2231 7471 2312 7583 2407 7679 C 2523 7795 2586 7844 2695 7898 C 2798 7949 2847 7964 3012 7998 L 3148 8026 L 3178 7999 C 3247 7937 3425 7903 3517 7934 C 3631 7972 3679 8055 3666 8192 C 3653 8331 3609 8400 3511 8435 C 3462 8452 3441 8451 3362 8430 z M 3014 6176 C 3085 6147 3114 6071 3085 5995 C 3055 5915 2983 5882 2913 5916 C 2812 5966 2806 6111 2903 6170 C 2941 6193 2969 6195 3014 6176 z M 1655 6158 C 1671 6133 1813 5703 1886 5455 C 1912 5367 1934 5293 1935 5292 C 1937 5290 1955 5342 1975 5407 C 2010 5519 2168 5994 2208 6108 C 2219 6137 2232 6166 2237 6171 C 2243 6177 2314 6180 2421 6178 L 2595 6175 L 2598 5528 L 2600 4880 L 2475 4880 L 2350 4880 L 2349 5288 L 2349 5695 L 2310 5590 C 2288 5532 2222 5349 2163 5182 L 2055 4880 L 1946 4882 L 1837 4885 L 1805 4970 C 1788 5017 1723 5190 1661 5355 C 1600 5520 1546 5664 1541 5675 C 1536 5686 1532 5535 1531 5325 C 1530 5122 1527 4938 1523 4918 L 1517 4880 L 1397 4880 L 1277 4880 L 1283 5048 C 1287 5140 1290 5432 1290 5697 L 1290 6180 L 1465 6179 C 1632 6179 1640 6178 1655 6158 z M 3817 6146 C 3986 6101 4101 5977 4131 5806 C 4137 5767 4140 5681 4138 5597 C 4134 5476 4130 5444 4108 5382 C 4063 5255 3987 5178 3861 5128 C 3811 5109 3782 5106 3593 5102 L 3380 5098 L 3380 5629 L 3380 6160 L 3573 6160 C 3704 6160 3781 6155 3817 6146 z M 3098 5328 L 3100 4880 L 2970 4880 L 2840 4880 L 2840 5330 L 2840 5781 L 2968 5778 L 3095 5775 L 3098 5328 z M 7984 3800 C 8095 3772 8174 3727 8255 3645 C 8366 3534 8420 3403 8421 3245 C 8423 2991 8285 2783 8050 2687 C 7864 2611 7652 2631 7486 2740 C 7374 2812 7287 2927 7247 3055 C 7213 3162 7217 3318 7255 3420 C 7366 3718 7675 3879 7984 3800 z" stroke-linecap="round" />
</g>
		<g transform="matrix(0.13 0 0 -0.13 369.52 247.91)"  >
<path style="stroke: none; stroke-width: 1; stroke-dasharray: none; stroke-linecap: butt; stroke-dashoffset: 0; stroke-linejoin: miter; stroke-miterlimit: 4; fill: rgb(255,62,62); fill-rule: nonzero; opacity: 1;" vector-effect="non-scaling-stroke"  transform=" translate(-7824.12, -3232.5)" d="M 7740 3531 C 7652 3504 7575 3436 7539 3355 C 7508 3285 7507 3164 7537 3099 C 7564 3039 7623 2980 7686 2949 C 7727 2929 7749 2925 7825 2926 C 7902 2926 7922 2930 7966 2952 C 8074 3008 8132 3106 8133 3232 C 8134 3301 8130 3317 8099 3377 C 8059 3455 8005 3502 7928 3525 C 7874 3541 7782 3544 7740 3531 z" stroke-linecap="round" />
</g>
		<g transform="matrix(0.13 0 0 -0.13 67.49 -298.83)"  >
<path style="stroke: none; stroke-width: 1; stroke-dasharray: none; stroke-linecap: butt; stroke-dashoffset: 0; stroke-linejoin: miter; stroke-miterlimit: 4; fill: rgb(255,62,62); fill-rule: nonzero; opacity: 1;" vector-effect="non-scaling-stroke"  transform=" translate(-5558.92, -7333.04)" d="M 4015 8432 C 3939 8383 3914 8328 3911 8205 C 3908 8060 3948 7966 4027 7934 C 4066 7917 4195 7916 4399 7930 C 4555 7941 4611 7958 4649 8006 C 4665 8027 4676 8030 4726 8030 C 4759 8030 4803 8026 4825 8021 C 4847 8016 4883 8009 4905 8006 C 4963 7999 5068 7976 5200 7942 C 5568 7847 5955 7635 6270 7355 C 6372 7265 6510 7111 6606 6980 C 6747 6787 6886 6491 6931 6288 L 6943 6230 L 7039 6230 C 7092 6230 7151 6227 7171 6224 L 7207 6218 L 7199 6271 C 7194 6301 7188 6341 7185 6360 C 7139 6654 6995 6967 6786 7226 C 6533 7541 6066 7879 5634 8060 C 5450 8138 5247 8202 5085 8234 C 4979 8256 4796 8280 4740 8280 C 4698 8280 4690 8285 4640 8335 C 4610 8365 4572 8394 4555 8400 C 4516 8413 4305 8437 4160 8445 C 4057 8451 4042 8449 4015 8432 z" stroke-linecap="round" />
</g>
		<g transform="matrix(0.13 0 0 -0.13 252.84 -51.43)"  >
<path style="stroke: none; stroke-width: 1; stroke-dasharray: none; stroke-linecap: butt; stroke-dashoffset: 0; stroke-linejoin: miter; stroke-miterlimit: 4; fill: rgb(255,62,62); fill-rule: nonzero; opacity: 1;" vector-effect="non-scaling-stroke"  transform=" translate(-6949, -5477.5)" d="M 6760 6005 L 6760 5860 L 6685 5860 L 6610 5860 L 6610 5740 L 6610 5620 L 6684 5620 L 6759 5620 L 6763 5328 C 6765 5119 6770 5024 6780 4998 C 6802 4936 6861 4867 6920 4835 C 6971 4807 6982 4805 7080 4805 C 7138 4805 7208 4811 7236 4818 L 7288 4832 L 7286 4946 C 7285 5042 7283 5059 7270 5056 C 7182 5032 7093 5045 7060 5087 C 7034 5120 7030 5161 7027 5408 L 7025 5620 L 7155 5620 L 7285 5620 L 7282 5740 L 7279 5860 L 7152 5860 L 7025 5860 L 7027 6005 L 7029 6150 L 6894 6150 L 6760 6150 L 6760 6005 z" stroke-linecap="round" />
</g>
		<g transform="matrix(0.13 0 0 -0.13 374.16 -32.84)"  >
<path style="stroke: none; stroke-width: 1; stroke-dasharray: none; stroke-linecap: butt; stroke-dashoffset: 0; stroke-linejoin: miter; stroke-miterlimit: 4; fill: rgb(255,62,62); fill-rule: nonzero; opacity: 1;" vector-effect="non-scaling-stroke"  transform=" translate(-7858.91, -5338.11)" d="M 7743 5875 C 7566 5835 7414 5682 7365 5493 C 7357 5461 7350 5392 7350 5337 C 7350 5171 7392 5052 7487 4950 C 7577 4852 7688 4802 7836 4793 C 7913 4788 7939 4791 8001 4810 C 8100 4839 8166 4878 8227 4943 C 8462 5191 8392 5664 8098 5820 C 7987 5879 7852 5900 7743 5875 z M 7960 5605 C 8007 5581 8068 5503 8085 5445 C 8093 5416 8100 5360 8100 5322 C 8100 5262 8095 5242 8067 5189 C 8008 5074 7897 5020 7794 5054 C 7728 5076 7675 5121 7642 5184 C 7618 5230 7615 5246 7615 5335 C 7615 5442 7635 5506 7683 5558 C 7751 5631 7871 5651 7960 5605 z" stroke-linecap="round" />
</g>
		<g transform="matrix(0.13 0 0 -0.13 500.08 -35)"  >
<path style="stroke: none; stroke-width: 1; stroke-dasharray: none; stroke-linecap: butt; stroke-dashoffset: 0; stroke-linejoin: miter; stroke-miterlimit: 4; fill: rgb(255,62,62); fill-rule: nonzero; opacity: 1;" vector-effect="non-scaling-stroke"  transform=" translate(-8803.35, -5354.33)" d="M 8987 5879 C 8924 5864 8849 5820 8798 5768 L 8750 5719 L 8750 5789 L 8750 5860 L 8620 5860 L 8490 5860 L 8490 5477 C 8490 5266 8487 5032 8483 4957 L 8477 4820 L 8618 4820 L 8759 4820 L 8762 5108 C 8765 5430 8768 5443 8844 5528 C 8891 5579 8950 5600 9049 5600 L 9125 5600 L 9129 5736 C 9131 5843 9129 5874 9119 5881 C 9102 5892 9037 5891 8987 5879 z" stroke-linecap="round" />
</g>
		<g transform="matrix(0.13 0 0 -0.13 -2.09 -32.33)"  >
<path style="stroke: none; stroke-width: 1; stroke-dasharray: none; stroke-linecap: butt; stroke-dashoffset: 0; stroke-linejoin: miter; stroke-miterlimit: 4; fill: rgb(255,62,62); fill-rule: nonzero; opacity: 1;" vector-effect="non-scaling-stroke"  transform=" translate(-5037.02, -5334.24)" d="M 4916 5869 C 4821 5846 4703 5764 4638 5679 C 4519 5521 4501 5245 4597 5056 C 4611 5028 4653 4975 4689 4939 C 4836 4793 5029 4753 5225 4829 C 5423 4905 5525 5057 5537 5293 C 5544 5415 5530 5490 5478 5598 C 5427 5705 5350 5784 5243 5837 C 5171 5873 5161 5875 5061 5877 C 5003 5878 4938 5875 4916 5869 z M 5102 5618 C 5158 5601 5223 5540 5249 5479 C 5318 5319 5262 5128 5128 5070 C 4946 4991 4774 5140 4792 5362 C 4807 5550 4946 5665 5102 5618 z" stroke-linecap="round" />
</g>
		<g transform="matrix(0.13 0 0 -0.13 141.27 -31.82)"  >
<path style="stroke: none; stroke-width: 1; stroke-dasharray: none; stroke-linecap: butt; stroke-dashoffset: 0; stroke-linejoin: miter; stroke-miterlimit: 4; fill: rgb(255,62,62); fill-rule: nonzero; opacity: 1;" vector-effect="non-scaling-stroke"  transform=" translate(-6112.27, -5330.48)" d="M 5965 5858 C 5716 5772 5586 5528 5630 5229 C 5648 5099 5690 5009 5769 4930 C 5932 4767 6151 4736 6363 4847 C 6474 4906 6580 5040 6597 5145 L 6603 5180 L 6448 5180 L 6292 5180 L 6280 5150 C 6262 5105 6199 5061 6138 5048 C 5994 5018 5880 5147 5880 5342 C 5880 5522 5961 5625 6102 5624 C 6172 5623 6242 5585 6279 5527 L 6303 5490 L 6448 5490 L 6592 5490 L 6585 5518 C 6551 5661 6401 5814 6252 5860 C 6166 5887 6046 5886 5965 5858 z" stroke-linecap="round" />
</g>
</g>
</g>
</svg>